<?xml version="1.0" standalone="no"?>
<!DOCTYPE svg PUBLIC "-//W3C//DTD SVG 20010904//EN"
 "http://www.w3.org/TR/2001/REC-SVG-20010904/DTD/svg10.dtd">
<svg version="1.0" xmlns="http://www.w3.org/2000/svg"
 width="508.000000pt" height="508.000000pt" viewBox="0 0 508.000000 508.000000"
 preserveAspectRatio="xMidYMid meet">
<metadata>
Created by potrace 1.11, written by Peter Selinger 2001-2013
</metadata>
<g transform="translate(0.000000,508.000000) scale(0.100000,-0.100000)"
fill="#000000" stroke="none">
<path d="M166 4915 c-15 -22 -16 -228 -16 -2378 0 -2268 1 -2355 18 -2370 17
-16 196 -17 2371 -17 2148 0 2354 1 2376 16 l25 16 0 2357 0 2356 -24 23 -24
22 -2355 0 -2355 0 -16 -25z m1562 -793 l-3 -757 -762 -3 -763 -2 0 759 c0
703 1 760 17 763 9 2 353 2 765 0 l748 -2 -2 -758z m3152 -2 l1 -755 -761 -3
-760 -2 0 759 c0 497 3 760 10 763 5 2 348 1 760 -2 l750 -5 0 -755z m-1572 3
l-3 -758 -762 -3 -763 -2 0 760 0 760 765 0 765 0 -2 -757z m-1594 -819 c14
-6 16 -82 16 -765 l0 -759 -765 0 -765 0 0 759 c0 598 3 760 13 764 18 8 1482
8 1501 1z m1585 -8 c8 -9 10 -217 9 -762 l-3 -749 -762 -3 -763 -2 0 758 c0
417 3 762 7 765 3 4 343 7 753 7 618 0 750 -2 759 -14z m1581 2 c0 -7 0 -350
0 -763 l0 -750 -760 -3 -760 -2 0 758 c0 417 3 762 7 765 3 4 345 7 760 7 596
0 753 -3 753 -12z m-3155 -2333 l0 -760 -762 -3 -763 -2 0 758 c0 417 3 762 7
765 3 4 347 6 762 5 l756 -3 0 -760z m1579 749 c8 -20 8 -1478 0 -1498 -6 -14
-82 -16 -765 -16 l-759 0 0 758 c0 417 3 762 7 765 3 4 345 7 759 7 676 0 752
-2 758 -16z m1578 -1 c2 -9 2 -353 0 -765 l-2 -748 -760 0 -760 0 0 758 c0
417 3 762 7 765 3 4 345 7 759 7 696 0 753 -1 756 -17z"/>
<path d="M2383 4766 c-28 -7 -91 -32 -140 -55 -73 -35 -102 -57 -175 -131 -49
-49 -88 -95 -88 -103 0 -8 -6 -20 -13 -26 -18 -14 -63 -132 -76 -199 -15 -74
-14 -221 3 -284 34 -131 90 -229 180 -318 134 -133 274 -190 466 -190 93 0
129 5 194 25 229 70 372 220 456 479 18 57 16 247 -4 320 -63 234 -237 412
-466 475 -86 24 -251 27 -337 7z"/>
<path d="M4025 3200 c-188 -31 -347 -128 -447 -273 -87 -128 -118 -229 -118
-389 0 -90 5 -128 25 -192 84 -277 338 -466 625 -466 130 0 259 32 332 82 14
10 31 18 38 18 6 0 51 40 100 88 78 77 95 101 134 183 53 113 66 171 66 292
-1 222 -96 411 -273 537 -111 80 -214 116 -354 124 -43 2 -100 1 -128 -4z"/>
<path d="M850 1620 c-243 -46 -435 -213 -518 -449 -23 -67 -26 -91 -26 -206 0
-115 3 -139 27 -211 67 -201 233 -363 437 -426 98 -30 283 -32 374 -4 225 68
382 223 457 451 33 100 33 279 0 380 -39 119 -79 184 -171 275 -90 91 -156
132 -270 170 -73 24 -236 35 -310 20z"/>
<path d="M2445 1624 c-54 -9 -169 -47 -214 -72 -178 -98 -287 -243 -341 -454
-18 -70 -8 -256 19 -338 44 -138 145 -270 267 -350 202 -132 444 -146 664 -39
115 56 238 179 292 289 57 118 71 180 71 306 0 191 -57 329 -193 464 -91 90
-185 147 -292 176 -55 15 -221 26 -273 18z"/>
<path d="M4020 1624 c-184 -33 -355 -143 -452 -291 -85 -131 -112 -235 -106
-403 7 -185 57 -298 188 -431 68 -69 102 -94 170 -127 194 -96 407 -96 600 0
120 60 230 170 288 288 57 115 72 180 72 308 0 125 -24 219 -84 325 -82 148
-236 268 -399 313 -53 14 -232 26 -277 18z"/>
</g>
</svg>
